# xmcd CD database file
#
# Track frame offsets:
#	150
#	13137
#	50296
#	72195
#	89599
#	103328
#	115799
#	127161
#	139644
#	154253
#	164463
#	178315
#	190644
#	203108
#	217968
#	233002
#	245006
#	257137
#
# Disc length: 3577 seconds
#
# Revision: 0
# Processed by: cddbd v1.5.2PL0 Copyright (c) Steve Scherf et al.
# Submitted via: CDex 1.70beta2
#
DISCID=090df712
DTITLE=Various Artist - Jazz Roads CD346 - Bebop - Wardell Gray Vol.4 (1951-52)
DYEAR=2008
DGENRE=Jazz
TTITLE0=Count Basie Seven - Jumpin' At The Woodside
TTITLE1=Count Basie Seven - How High The Moon
TTITLE2=Count Basie Seven - Bluebeard's Blues
TTITLE3=Count Basie Seven - One O'Clock Jump
TTITLE4=Wardell Gray Sextet - April Skies
TTITLE5=Wardell Gray Sextet - Bright Boy
TTITLE6=Wardell Gray Sextet - Jackie
TTITLE7=Wardell Gray Sextet - Farmer's Market
TTITLE8=Wardell Gray Sextet - Sweet And Lovely
TTITLE9=Wardell Gray Sextet - Lover Man
TTITLE10=Louis Bellson And The Just Jazz All Stars - The Jeep Is Jumpin'
TTITLE11=Louis Bellson And The Just Jazz All Stars - Passion Flower
TTITLE12=Louis Bellson And The Just Jazz All Stars - Johnny Come Lately
TTITLE13=Louis Bellson And The Just Jazz All Stars - Sticks
TTITLE14=Louis Bellson And The Just Jazz All Stars - Punkin'
TTITLE15=Louis Bellson And The Just Jazz All Stars - Eyes
TTITLE16=Louis Bellson And The Just Jazz All Stars - Rainbow
TTITLE17=Louis Bellson And The Just Jazz All Stars - Shadows
EXTD=YEAR: 2008
EXTT0=
EXTT1=
EXTT2=
EXTT3=
EXTT4=
EXTT5=
EXTT6=
EXTT7=
EXTT8=
EXTT9=
EXTT10=
EXTT11=
EXTT12=
EXTT13=
EXTT14=
EXTT15=
EXTT16=
EXTT17=
PLAYORDER=
